<?xml version="1.0" encoding="UTF-8" standalone="no"?>
<svg width="60px" height="60px" viewBox="0 0 60 60" version="1.1" xmlns="http://www.w3.org/2000/svg" xmlns:xlink="http://www.w3.org/1999/xlink">
    <!-- Generator: sketchtool 40.2 (33826) - http://www.bohemiancoding.com/sketch -->
    <title>1E93E843-E93B-4E40-A6B0-4F72E9EE0E50</title>
    <desc>Created with sketchtool.</desc>
    <defs></defs>
    <g id="Page-1" stroke="none" stroke-width="1" fill="none" fill-rule="evenodd">
        <g id="1-2-Landing-Entrepreneur" transform="translate(-1033.000000, -4343.000000)">
            <g id="Group-25" transform="translate(969.000000, 4344.000000)">
                <g id="44---Briefcase-(Retro)" transform="translate(65.000000, 0.000000)">
                    <path d="M38.2453,34 L34.0003,34 L34.0003,28 L24.0003,28 L24.0003,34 L19.7543,34 C11.0053,34 3.5963,28.306 1.0003,20.425 L1.0003,50.385 C1.0003,51.94 2.0583,53.295 3.5673,53.672 L12.9973,56.03 C23.5043,58.657 34.4963,58.657 45.0023,56.03 L54.4333,53.672 C55.9413,53.295 57.0003,51.94 57.0003,50.385 L57.0003,20.425 C54.4043,28.306 46.9953,34 38.2453,34" id="Fill-73" fill="#FF694C"></path>
                    <path d="M36,5.4441 L36,8.0001 L40,8.0001 L40,5.8881 C40,2.6361 37.364,0.0001 34.111,0.0001 L23.889,0.0001 C20.636,0.0001 18,2.6361 18,5.8881 L18,8.0001 L22,8.0001 L22,5.4441 C22,4.3311 23.13,3.5751 24.159,4.0001 C27.259,5.2811 30.741,5.2811 33.841,4.0001 C34.87,3.5751 36,4.3311 36,5.4441" id="Fill-74" fill="#FF694C"></path>
                    <path d="M0,11 L0,14.245 C0,25.156 8.844,34 19.755,34 L24,34 L34,34 L38.245,34 C49.156,34 58,25.156 58,14.245 L58,11 L0,11 Z" id="Fill-225" fill="#F25554"></path>
                    <polygon id="Fill-1771" fill="#FFFFFF" points="16 11 24 11 24 8 16 8"></polygon>
                    <polygon id="Fill-1772" fill="#FFFFFF" points="34 11 42 11 42 8 34 8"></polygon>
                    <path d="M4.124,17.3633 C3.633,17.3633 3.205,17.0023 3.135,16.5023 C3.087,16.1603 3.051,15.8143 3.026,15.4673 C2.986,14.9163 3.4,14.4363 3.951,14.3973 C4.498,14.3523 4.98,14.7703 5.02,15.3223 C5.043,15.6253 5.073,15.9263 5.115,16.2243 C5.192,16.7713 4.811,17.2773 4.264,17.3533 C4.217,17.3603 4.17,17.3633 4.124,17.3633 M5.514,22.0093 C5.141,22.0093 4.783,21.8003 4.611,21.4413 C4.462,21.1303 4.322,20.8133 4.192,20.4923 C3.985,19.9803 4.232,19.3973 4.744,19.1903 C5.257,18.9823 5.839,19.2303 6.046,19.7423 C6.16,20.0243 6.282,20.3013 6.414,20.5763 C6.653,21.0743 6.443,21.6713 5.945,21.9103 C5.806,21.9773 5.658,22.0093 5.514,22.0093 M8.251,26.0093 C7.984,26.0093 7.719,25.9033 7.521,25.6943 C7.285,25.4413 7.057,25.1823 6.836,24.9173 C6.484,24.4923 6.543,23.8613 6.969,23.5093 C7.394,23.1553 8.023,23.2163 8.377,23.6413 C8.57,23.8763 8.771,24.1033 8.98,24.3253 C9.358,24.7283 9.338,25.3613 8.936,25.7393 C8.742,25.9203 8.496,26.0093 8.251,26.0093 M12.07,28.9993 C11.905,28.9993 11.737,28.9583 11.583,28.8713 C11.28,28.7023 10.984,28.5243 10.694,28.3373 C10.23,28.0383 10.097,27.4193 10.396,26.9553 C10.694,26.4903 11.313,26.3573 11.778,26.6573 C12.033,26.8213 12.294,26.9773 12.56,27.1273 C13.042,27.3963 13.214,28.0063 12.943,28.4873 C12.761,28.8153 12.421,28.9993 12.07,28.9993 M16.616,30.6863 C16.55,30.6863 16.482,30.6793 16.415,30.6663 C16.075,30.5963 15.739,30.5173 15.407,30.4283 C14.874,30.2853 14.558,29.7363 14.701,29.2033 C14.846,28.6703 15.396,28.3563 15.927,28.4973 C16.22,28.5763 16.515,28.6453 16.815,28.7073 C17.356,28.8173 17.705,29.3453 17.595,29.8863 C17.498,30.3603 17.081,30.6863 16.616,30.6863" id="Fill-1782" fill="#BC4933"></path>
                    <path d="M21,31 L20.5,31 C19.947,31 19.5,30.553 19.5,30 C19.5,29.447 19.947,29 20.5,29 L21,29 C21.553,29 22,29.447 22,30 C22,30.553 21.553,31 21,31" id="Fill-1783" fill="#BC4933"></path>
                    <path d="M37.5,31 L37,31 C36.447,31 36,30.553 36,30 C36,29.447 36.447,29 37,29 L37.5,29 C38.053,29 38.5,29.447 38.5,30 C38.5,30.553 38.053,31 37.5,31" id="Fill-1784" fill="#BC4933"></path>
                    <path d="M53.875,17.3721 C53.831,17.3721 53.786,17.3691 53.74,17.3631 C53.193,17.2891 52.81,16.7861 52.883,16.2381 C52.923,15.9391 52.955,15.6371 52.978,15.3321 C53.018,14.7811 53.507,14.3731 54.047,14.4071 C54.598,14.4461 55.012,14.9261 54.972,15.4761 C54.947,15.8221 54.911,16.1661 54.865,16.5061 C54.798,17.0081 54.368,17.3721 53.875,17.3721 M52.482,22.0171 C52.338,22.0171 52.191,21.9851 52.052,21.9191 C51.554,21.6811 51.343,21.0831 51.581,20.5851 C51.712,20.3111 51.835,20.0331 51.949,19.7511 C52.157,19.2381 52.742,18.9931 53.252,19.2001 C53.764,19.4081 54.011,19.9911 53.803,20.5031 C53.673,20.8221 53.534,21.1381 53.386,21.4481 C53.214,21.8071 52.855,22.0171 52.482,22.0171 M49.743,26.0151 C49.498,26.0151 49.252,25.9251 49.059,25.7441 C48.656,25.3661 48.636,24.7331 49.014,24.3301 C49.222,24.1081 49.424,23.8801 49.619,23.6451 C49.971,23.2231 50.603,23.1621 51.027,23.5171 C51.452,23.8701 51.51,24.5001 51.156,24.9251 C50.936,25.1901 50.708,25.4481 50.473,25.6991 C50.275,25.9081 50.01,26.0151 49.743,26.0151 M45.924,29.0021 C45.573,29.0021 45.233,28.8181 45.051,28.4901 C44.78,28.0091 44.952,27.3991 45.435,27.1301 C45.7,26.9801 45.962,26.8231 46.218,26.6591 C46.685,26.3581 47.302,26.4951 47.6,26.9591 C47.898,27.4241 47.764,28.0431 47.3,28.3411 C47.009,28.5281 46.714,28.7051 46.411,28.8741 C46.257,28.9611 46.089,29.0021 45.924,29.0021 M41.376,30.6871 C40.91,30.6871 40.492,30.3601 40.396,29.8861 C40.287,29.3441 40.638,28.8161 41.179,28.7071 C41.477,28.6471 41.771,28.5781 42.062,28.4991 C42.591,28.3531 43.144,28.6671 43.289,29.2011 C43.435,29.7331 43.12,30.2831 42.587,30.4291 C42.254,30.5191 41.916,30.5991 41.575,30.6681 C41.508,30.6821 41.441,30.6871 41.376,30.6871" id="Fill-1785" fill="#BC4933"></path>
                    <polygon id="Fill-1786" fill="#FFFFFF" points="24 20 34 20 34 16 24 16"></polygon>
                    <path d="M28,34 L28,57.985 C28.667,57.995 29.333,57.995 30,57.985 L30,34 L28,34 Z" id="Fill-2846" fill="#7A4616"></path>
                    <path d="M53,33.0303 C52.447,33.0303 52,32.5833 52,32.0303 L52,31.0303 C52,30.4773 52.447,30.0303 53,30.0303 C53.553,30.0303 54,30.4773 54,31.0303 L54,32.0303 C54,32.5833 53.553,33.0303 53,33.0303 M53,38.0303 C52.447,38.0303 52,37.5833 52,37.0303 L52,36.0303 C52,35.4773 52.447,35.0303 53,35.0303 C53.553,35.0303 54,35.4773 54,36.0303 L54,37.0303 C54,37.5833 53.553,38.0303 53,38.0303 M53,43.0303 C52.447,43.0303 52,42.5833 52,42.0303 L52,41.0303 C52,40.4773 52.447,40.0303 53,40.0303 C53.553,40.0303 54,40.4773 54,41.0303 L54,42.0303 C54,42.5833 53.553,43.0303 53,43.0303 M53,48.0303 C52.447,48.0303 52,47.5833 52,47.0303 L52,46.0303 C52,45.4773 52.447,45.0303 53,45.0303 C53.553,45.0303 54,45.4773 54,46.0303 L54,47.0303 C54,47.5833 53.553,48.0303 53,48.0303 M53,53.0303 C52.447,53.0303 52,52.5833 52,52.0303 L52,51.0303 C52,50.4773 52.447,50.0303 53,50.0303 C53.553,50.0303 54,50.4773 54,51.0303 L54,52.0303 C54,52.5833 53.553,53.0303 53,53.0303" id="Fill-2847" fill="#BC4933"></path>
                    <path d="M5,32.3496 C4.447,32.3496 4,31.9026 4,31.3496 L4,30.3496 C4,29.7966 4.447,29.3496 5,29.3496 C5.553,29.3496 6,29.7966 6,30.3496 L6,31.3496 C6,31.9026 5.553,32.3496 5,32.3496 M5,37.3496 C4.447,37.3496 4,36.9026 4,36.3496 L4,35.3496 C4,34.7966 4.447,34.3496 5,34.3496 C5.553,34.3496 6,34.7966 6,35.3496 L6,36.3496 C6,36.9026 5.553,37.3496 5,37.3496 M5,42.3496 C4.447,42.3496 4,41.9026 4,41.3496 L4,40.3496 C4,39.7966 4.447,39.3496 5,39.3496 C5.553,39.3496 6,39.7966 6,40.3496 L6,41.3496 C6,41.9026 5.553,42.3496 5,42.3496 M5,47.3496 C4.447,47.3496 4,46.9026 4,46.3496 L4,45.3496 C4,44.7966 4.447,44.3496 5,44.3496 C5.553,44.3496 6,44.7966 6,45.3496 L6,46.3496 C6,46.9026 5.553,47.3496 5,47.3496 M5,52.3496 C4.447,52.3496 4,51.9026 4,51.3496 L4,50.3496 C4,49.7966 4.447,49.3496 5,49.3496 C5.553,49.3496 6,49.7966 6,50.3496 L6,51.3496 C6,51.9026 5.553,52.3496 5,52.3496" id="Fill-2848" fill="#BC4933"></path>
                    <polygon id="Fill-2849" fill="#FF694C" points="25.958 37.583 31.958 37.583 31.958 30 25.958 30"></polygon>
                    <path d="M31,33.432 C31,33.746 30.746,34 30.432,34 L30,34 L30,36 C30,36.553 29.553,37 29,37 C28.447,37 28,36.553 28,36 L28,34 L27.568,34 C27.254,34 27,33.746 27,33.432 L27,31.568 C27,31.254 27.254,31 27.568,31 L30.432,31 C30.746,31 31,31.254 31,31.568 L31,33.432 Z M24,39 L34,39 L34,28 L24,28 L24,39 Z" id="Fill-2850" fill="#FFFFFF"></path>
                    <polygon id="Stroke-4148" stroke="#BC4933" stroke-width="2" stroke-linecap="round" points="24 39 34 39 34 28 24 28"></polygon>
                    <path d="M1,20.4253 L1,50.3843 C1,51.9393 2.058,53.2953 3.567,53.6723 L12.997,56.0303 C23.504,58.6563 34.496,58.6563 45.003,56.0303 L54.433,53.6723 C55.942,53.2953 57,51.9393 57,50.3843 L57,20.4253" id="Stroke-4149" stroke="#BC4933" stroke-width="2" stroke-linecap="round"></path>
                    <path d="M0,11 L0,14.245 C0,25.156 8.844,34 19.755,34 L24,34 L24,28 L34,28 L34,34 L38.245,34 C49.156,34 58,25.156 58,14.245 L58,11 L0,11 L0,11 Z" id="Stroke-4150" stroke="#BC4933" stroke-width="2" stroke-linecap="round"></path>
                    <path d="M29,39 L29,58" id="Stroke-4151" stroke="#BC4933" stroke-width="2" stroke-linecap="round"></path>
                    <polygon id="Stroke-4152" stroke="#BC4933" stroke-width="2" stroke-linecap="round" points="16 11 24 11 24 8 16 8"></polygon>
                    <polygon id="Stroke-4153" stroke="#BC4933" stroke-width="2" stroke-linecap="round" points="34 11 42 11 42 8 34 8"></polygon>
                    <path d="M36,5.4441 L36,8.0001 L40,8.0001 L40,5.8881 C40,2.6361 37.364,0.0001 34.111,0.0001 L23.889,0.0001 C20.636,0.0001 18,2.6361 18,5.8881 L18,8.0001 L22,8.0001 L22,5.4441 C22,4.3311 23.13,3.5751 24.159,4.0001 C27.259,5.2811 30.741,5.2811 33.841,4.0001 C34.87,3.5751 36,4.3311 36,5.4441 L36,5.4441 Z" id="Stroke-4154" stroke="#BC4933" stroke-width="2" stroke-linecap="round"></path>
                </g>
            </g>
        </g>
    </g>
</svg>