<?xml version="1.0" encoding="UTF-8" standalone="no"?>
<svg width="60px" height="59px" viewBox="0 0 60 59" version="1.1" xmlns="http://www.w3.org/2000/svg" xmlns:xlink="http://www.w3.org/1999/xlink">
    <!-- Generator: sketchtool 40.2 (33826) - http://www.bohemiancoding.com/sketch -->
    <title>59B1A2DC-77D0-4358-A55D-4DCA5FD4F098</title>
    <desc>Created with sketchtool.</desc>
    <defs></defs>
    <g id="Page-1" stroke="none" stroke-width="1" fill="none" fill-rule="evenodd">
        <g id="1-2-Landing-Entrepreneur" transform="translate(-690.000000, -4341.000000)">
            <g id="Group-24" transform="translate(619.000000, 4341.000000)">
                <g id="77---Cashier-(Retro)" transform="translate(72.000000, 0.000000)">
                    <path d="M54.8036,15 L53.1686,15 C52.5226,15 51.9996,14.477 51.9996,13.832 L51.9996,7.168 C51.9996,6.523 51.4766,6 50.8316,6 L29.1686,6 C28.5226,6 27.9996,6.523 27.9996,7.168 L27.9996,13.832 C27.9996,14.477 27.4766,15 26.8316,15 L15.9996,15 L15.9996,12 L11.9996,12 L11.9996,15 L3.1966,15 C2.5356,15 1.9996,15.536 1.9996,16.196 L1.9996,44.804 C1.9996,45.464 2.5356,46 3.1966,46 L54.8036,46 C55.4646,46 55.9996,45.464 55.9996,44.804 L55.9996,16.196 C55.9996,15.536 55.4646,15 54.8036,15" id="Fill-142" fill="#FF694C"></path>
                    <path d="M28,13.8318 C28,14.4768 27.477,14.9998 26.832,14.9998 L16,14.9998 L16,11.9998 L12,11.9998 L12,14.9998 L3.196,14.9998 C2.536,14.9998 2,15.5358 2,16.1968 L2,44.8038 C2,45.4648 2.536,45.9998 3.196,45.9998 L28,45.9998 L28,13.8318 Z" id="Fill-143" fill="#FF694C"></path>
                    <polygon id="Fill-1400" fill="#FF694C" points="0 58 58 58 58 50 0 50"></polygon>
                    <path d="M19,55 L5,55 C4.448,55 4,54.553 4,54 C4,53.447 4.448,53 5,53 L19,53 C19.552,53 20,53.447 20,54 C20,54.553 19.552,55 19,55" id="Fill-1401" fill="#FFFFFF"></path>
                    <path d="M54,55 L53,55 C52.448,55 52,54.553 52,54 C52,53.447 52.448,53 53,53 L54,53 C54.552,53 55,53.447 55,54 C55,54.553 54.552,55 54,55" id="Fill-1402" fill="#FFFFFF"></path>
                    <polygon id="Fill-1403" fill="#FFFFFF" points="31 20 49 20 49 9 31 9"></polygon>
                    <polygon id="Fill-1404" fill="#FF694C" points="4 50 54 50 54 46 4 46"></polygon>
                    <polygon id="Fill-1405" fill="#FFFFFF" points="31 28 35 28 35 24 31 24"></polygon>
                    <polygon id="Fill-1406" fill="#FFFFFF" points="38 28 42 28 42 24 38 24"></polygon>
                    <polygon id="Fill-1407" fill="#FFFFFF" points="45 28 49 28 49 24 45 24"></polygon>
                    <polygon id="Fill-1408" fill="#FFFFFF" points="31 35 35 35 35 31 31 31"></polygon>
                    <polygon id="Fill-1409" fill="#FFFFFF" points="38 35 42 35 42 31 38 31"></polygon>
                    <polygon id="Fill-1410" fill="#FFFFFF" points="45 35 49 35 49 31 45 31"></polygon>
                    <polygon id="Fill-1411" fill="#FFFFFF" points="31 42 35 42 35 38 31 38"></polygon>
                    <polygon id="Fill-1412" fill="#FFFFFF" points="38 42 42 42 42 38 38 38"></polygon>
                    <polygon id="Fill-1413" fill="#F25554" points="45 42 49 42 49 38 45 38"></polygon>
                    <path d="M24,40 L6,40 C5.448,40 5,39.553 5,39 C5,38.447 5.448,38 6,38 L24,38 C24.552,38 25,38.447 25,39 C25,39.553 24.552,40 24,40" id="Fill-1414" fill="#6A6A6E"></path>
                    <polygon id="Fill-1415" fill="#FFFFFF" points="8 39 22 39 22 21 8 21"></polygon>
                    <path d="M16,36 L11,36 C10.448,36 10,35.553 10,35 C10,34.447 10.448,34 11,34 L16,34 C16.552,34 17,34.447 17,35 C17,35.553 16.552,36 16,36" id="Fill-1416" fill="#FF694C"></path>
                    <path d="M19,36 C18.74,36 18.48,35.89 18.29,35.71 C18.11,35.52 18,35.26 18,35 C18,34.74 18.11,34.479 18.29,34.29 C18.67,33.92 19.34,33.92 19.71,34.29 C19.89,34.479 20,34.74 20,35 C20,35.26 19.89,35.52 19.71,35.71 C19.52,35.89 19.26,36 19,36" id="Fill-1417" fill="#FF694C"></path>
                    <path d="M19,26 L14,26 C13.448,26 13,25.553 13,25 C13,24.447 13.448,24 14,24 L19,24 C19.552,24 20,24.447 20,25 C20,25.553 19.552,26 19,26" id="Fill-1418" fill="#FF694C"></path>
                    <path d="M39,13 L34,13 C33.448,13 33,12.553 33,12 C33,11.447 33.448,11 34,11 L39,11 C39.552,11 40,11.447 40,12 C40,12.553 39.552,13 39,13" id="Fill-1419" fill="#FF694C"></path>
                    <path d="M39,17 L34,17 C33.448,17 33,16.553 33,16 C33,15.447 33.448,15 34,15 L39,15 C39.552,15 40,15.447 40,16 C40,16.553 39.552,17 39,17" id="Fill-1420" fill="#FF694C"></path>
                    <path d="M19,31 L18,31 C17.448,31 17,30.553 17,30 C17,29.447 17.448,29 18,29 L19,29 C19.552,29 20,29.447 20,30 C20,30.553 19.552,31 19,31" id="Fill-1421" fill="#FF694C"></path>
                    <path d="M12,31 L11,31 C10.448,31 10,30.553 10,30 C10,29.447 10.448,29 11,29 L12,29 C12.552,29 13,29.447 13,30 C13,30.553 12.552,31 12,31" id="Fill-1422" fill="#FF694C"></path>
                    <path d="M11,26 C10.74,26 10.48,25.89 10.29,25.71 C10.11,25.52 10,25.27 10,25 C10,24.74 10.11,24.479 10.29,24.29 C10.66,23.92 11.33,23.92 11.71,24.29 C11.89,24.479 12,24.74 12,25 C12,25.27 11.89,25.52 11.71,25.71 C11.52,25.89 11.26,26 11,26" id="Fill-1423" fill="#FF694C"></path>
                    <path d="M15,31 C14.74,31 14.48,30.89 14.29,30.71 C14.11,30.52 14,30.26 14,30 C14,29.729 14.11,29.479 14.29,29.29 C14.67,28.92 15.33,28.92 15.71,29.29 C15.89,29.479 16,29.74 16,30 C16,30.26 15.89,30.52 15.71,30.71 C15.52,30.89 15.26,31 15,31" id="Fill-1424" fill="#FF694C"></path>
                    <polygon id="Fill-2741" fill="#ECF0F1" points="3 13 25 13 25 0 3 0"></polygon>
                    <polygon id="Fill-2742" fill="#FFFFFF" points="5 11 23 11 23 2 5 2"></polygon>
                    <path d="M8.3819,3.077 C8.1379,2.976 7.8619,2.976 7.6179,3.077 C7.4949,3.128 7.3849,3.201 7.2919,3.294 L6.2929,4.293 C5.9019,4.684 5.9019,5.316 6.2929,5.707 C6.4879,5.902 6.7439,6 6.9999,6 L6.9999,9 C6.9999,9.553 7.4479,10 7.9999,10 C8.5519,10 8.9999,9.553 8.9999,9 L8.9999,4 C8.9999,3.87 8.9739,3.74 8.9229,3.618 C8.8219,3.373 8.6269,3.178 8.3819,3.077" id="Fill-2743" fill="#FF694C"></path>
                    <path d="M17.3819,3.077 C17.1379,2.976 16.8619,2.976 16.6179,3.077 C16.4949,3.128 16.3849,3.201 16.2919,3.294 L15.2929,4.293 C14.9019,4.684 14.9019,5.316 15.2929,5.707 C15.4879,5.902 15.7439,6 15.9999,6 L15.9999,9 C15.9999,9.553 16.4479,10 16.9999,10 C17.5519,10 17.9999,9.553 17.9999,9 L17.9999,4 C17.9999,3.87 17.9739,3.74 17.9229,3.618 C17.8219,3.373 17.6269,3.178 17.3819,3.077" id="Fill-2744" fill="#FF694C"></path>
                    <path d="M12.293,7.293 L11.293,8.293 C10.902,8.684 10.902,9.316 11.293,9.707 C11.488,9.902 11.744,10 12,10 C12.256,10 12.512,9.902 12.707,9.707 L13.707,8.707 C14.098,8.316 14.098,7.684 13.707,7.293 C13.316,6.902 12.684,6.902 12.293,7.293" id="Fill-2745" fill="#FF694C"></path>
                    <path d="M21.9229,3.6179 C21.8219,3.3729 21.6269,3.1779 21.3819,3.0769 C21.1379,2.9759 20.8619,2.9759 20.6179,3.0769 C20.4949,3.1279 20.3849,3.2009 20.2919,3.2939 L19.2929,4.2929 C18.9019,4.6839 18.9019,5.3159 19.2929,5.7069 C19.4879,5.9019 19.7439,5.9999 19.9999,5.9999 L19.9999,8.9999 C19.9999,9.5529 20.4479,9.9999 20.9999,9.9999 C21.5519,9.9999 21.9999,9.5529 21.9999,8.9999 L21.9999,3.9999 C21.9999,3.8699 21.9739,3.7399 21.9229,3.6179" id="Fill-2746" fill="#FF694C"></path>
                    <polygon id="Stroke-3798" stroke="#BC4933" stroke-width="2" stroke-linecap="round" points="0 58 58 58 58 50 0 50"></polygon>
                    <path d="M52,13.8318 L52,7.1678 C52,6.5228 51.477,5.9998 50.832,5.9998 L29.168,5.9998 C28.523,5.9998 28,6.5228 28,7.1678 L28,13.8318 C28,14.4768 27.477,14.9998 26.832,14.9998 L16,14.9998 L16,11.9998 L23.286,11.9998 C23.681,11.9998 24,11.6808 24,11.2868 L24,1.7138 C24,1.3198 23.681,0.9998 23.286,0.9998 L4.714,0.9998 C4.319,0.9998 4,1.3198 4,1.7138 L4,11.2868 C4,11.6808 4.319,11.9998 4.714,11.9998 L12,11.9998 L12,14.9998 L3.196,14.9998 C2.536,14.9998 2,15.5358 2,16.1968 L2,44.8038 C2,45.4648 2.536,45.9998 3.196,45.9998 L54.804,45.9998 C55.464,45.9998 56,45.4648 56,44.8038 L56,16.1968 C56,15.5358 55.464,14.9998 54.804,14.9998 L53.168,14.9998 C52.523,14.9998 52,14.4768 52,13.8318 L52,13.8318 Z" id="Stroke-3799" stroke="#BC4933" stroke-width="2" stroke-linecap="round"></path>
                    <polygon id="Stroke-3800" stroke="#BC4933" stroke-width="2" stroke-linecap="round" points="31 20 49 20 49 9 31 9"></polygon>
                    <polygon id="Stroke-3801" stroke="#BC4933" stroke-width="2" stroke-linecap="round" points="4 50 54 50 54 46 4 46"></polygon>
                    <polygon id="Stroke-3802" stroke="#BC4933" stroke-width="2" stroke-linecap="round" points="31 28 35 28 35 24 31 24"></polygon>
                    <polygon id="Stroke-3803" stroke="#BC4933" stroke-width="2" stroke-linecap="round" points="38 28 42 28 42 24 38 24"></polygon>
                    <polygon id="Stroke-3804" stroke="#BC4933" stroke-width="2" stroke-linecap="round" points="45 28 49 28 49 24 45 24"></polygon>
                    <polygon id="Stroke-3805" stroke="#BC4933" stroke-width="2" stroke-linecap="round" points="31 35 35 35 35 31 31 31"></polygon>
                    <polygon id="Stroke-3806" stroke="#BC4933" stroke-width="2" stroke-linecap="round" points="38 35 42 35 42 31 38 31"></polygon>
                    <polygon id="Stroke-3807" stroke="#BC4933" stroke-width="2" stroke-linecap="round" points="45 35 49 35 49 31 45 31"></polygon>
                    <polygon id="Stroke-3808" stroke="#BC4933" stroke-width="2" stroke-linecap="round" points="31 42 35 42 35 38 31 38"></polygon>
                    <polygon id="Stroke-3809" stroke="#BC4933" stroke-width="2" stroke-linecap="round" points="38 42 42 42 42 38 38 38"></polygon>
                    <polygon id="Stroke-3810" stroke="#BC4933" stroke-width="2" stroke-linecap="round" points="45 42 49 42 49 38 45 38"></polygon>
                    <path d="M12,15 L12,19" id="Stroke-3811" stroke="#BC4933" stroke-width="2" stroke-linecap="round"></path>
                    <path d="M16,15 L16,19" id="Stroke-3812" stroke="#BC4933" stroke-width="2" stroke-linecap="round"></path>
                    <path d="M6,39 L24,39" id="Stroke-3813" stroke="#BC4933" stroke-width="2" stroke-linecap="round"></path>
                    <polygon id="Stroke-3814" stroke="#BC4933" stroke-width="2" stroke-linecap="round" points="8 39 22 39 22 21 8 21"></polygon>
                    <path d="M27,18 L27,43" id="Stroke-3815" stroke="#BC4933" stroke-width="2" stroke-linecap="round"></path>
                </g>
            </g>
        </g>
    </g>
</svg>