<?xml version="1.0" encoding="UTF-8" standalone="no"?>
<svg width="60px" height="60px" viewBox="0 0 60 60" version="1.1" xmlns="http://www.w3.org/2000/svg" xmlns:xlink="http://www.w3.org/1999/xlink">
    <!-- Generator: sketchtool 40.2 (33826) - http://www.bohemiancoding.com/sketch -->
    <title>8B228AFE-7C67-4E62-9A09-85EE13C1B072</title>
    <desc>Created with sketchtool.</desc>
    <defs></defs>
    <g id="Page-1" stroke="none" stroke-width="1" fill="none" fill-rule="evenodd">
        <g id="1-2-Landing-Entrepreneur" transform="translate(-349.000000, -4341.000000)">
            <g id="80---Receipt-(Retro)" transform="translate(350.000000, 4342.000000)">
                <path d="M55,0 L3,0 C1.35,0 0,1.35 0,3 C0,4.65 1.35,6 3,6 L3,3 L55,3 L55,6 C56.65,6 58,4.65 58,3 C58,1.35 56.65,0 55,0" id="Fill-1533" fill="#FF694C"></path>
                <polygon id="Fill-1534" fill="#FF694C" points="5 51 11 57 17 51 23 57 29 51 35 57 41 51 47 57 53 51 55 53 55 3 3 3 3 53"></polygon>
                <path d="M43,41 L28,41 C27.448,41 27,40.553 27,40 C27,39.447 27.448,39 28,39 L43,39 C43.552,39 44,39.447 44,40 C44,40.553 43.552,41 43,41" id="Fill-1535" fill="#FFFFFF"></path>
                <path d="M48,41 C47.74,41 47.48,40.89 47.29,40.71 C47.11,40.52 47,40.26 47,40 C47,39.729 47.11,39.479 47.29,39.29 C47.67,38.92 48.33,38.92 48.71,39.29 C48.89,39.479 49,39.729 49,40 C49,40.26 48.89,40.52 48.71,40.71 C48.52,40.89 48.26,41 48,41" id="Fill-1536" fill="#FFFFFF"></path>
                <path d="M48,27 L33,27 C32.448,27 32,26.553 32,26 C32,25.447 32.448,25 33,25 L48,25 C48.552,25 49,25.447 49,26 C49,26.553 48.552,27 48,27" id="Fill-1537" fill="#FFFFFF"></path>
                <path d="M48,34 L38,34 C37.448,34 37,33.553 37,33 C37,32.447 37.448,32 38,32 L48,32 C48.552,32 49,32.447 49,33 C49,33.553 48.552,34 48,34" id="Fill-1538" fill="#FFFFFF"></path>
                <path d="M30,34 L28,34 C27.448,34 27,33.553 27,33 C27,32.447 27.448,32 28,32 L30,32 C30.552,32 31,32.447 31,33 C31,33.553 30.552,34 30,34" id="Fill-1539" fill="#FFFFFF"></path>
                <path d="M43,20 L28,20 C27.448,20 27,19.553 27,19 C27,18.447 27.448,18 28,18 L43,18 C43.552,18 44,18.447 44,19 C44,19.553 43.552,20 43,20" id="Fill-1540" fill="#FFFFFF"></path>
                <path d="M48,20 C47.74,20 47.48,19.89 47.29,19.71 C47.11,19.52 47,19.26 47,19 C47,18.729 47.11,18.479 47.29,18.29 C47.66,17.92 48.34,17.92 48.71,18.29 C48.89,18.479 49,18.74 49,19 C49,19.26 48.89,19.52 48.71,19.71 C48.52,19.89 48.27,20 48,20" id="Fill-1541" fill="#FFFFFF"></path>
                <path d="M29,27 C28.74,27 28.48,26.89 28.29,26.71 C28.11,26.52 28,26.27 28,26 C28,25.729 28.11,25.479 28.29,25.29 C28.67,24.92 29.34,24.92 29.71,25.29 C29.89,25.479 30,25.729 30,26 C30,26.27 29.89,26.52 29.71,26.71 C29.52,26.89 29.26,27 29,27" id="Fill-1542" fill="#FFFFFF"></path>
                <path d="M34,34 C33.74,34 33.48,33.89 33.29,33.71 C33.11,33.52 33,33.26 33,33 C33,32.74 33.11,32.479 33.29,32.29 C33.67,31.92 34.34,31.92 34.71,32.29 C34.89,32.47 35,32.729 35,33 C35,33.27 34.89,33.52 34.71,33.71 C34.52,33.89 34.26,34 34,34" id="Fill-1543" fill="#FFFFFF"></path>
                <path d="M12.999,25.2881 C12.649,25.0161 12.423,24.6071 12.377,24.1681 C12.334,23.7591 12.452,23.3671 12.708,23.0641 C13.056,22.6531 13.506,22.3651 14,22.1891 L14,26.0671 L12.999,25.2881 Z M17.001,30.9341 C17.351,31.2061 17.577,31.6141 17.623,32.0531 C17.666,32.4631 17.548,32.8551 17.292,33.1581 C16.944,33.5691 16.494,33.8581 16,34.0331 L16,30.1561 L17.001,30.9341 Z M18,25.0001 C18,25.5531 18.448,26.0001 19,26.0001 C19.552,26.0001 20,25.5531 20,25.0001 C20,22.5851 18.279,20.5661 16,20.1011 L16,19.0001 C16,18.4471 15.552,18.0001 15,18.0001 C14.448,18.0001 14,18.4471 14,19.0001 L14,20.1041 C12.909,20.3271 11.915,20.9051 11.182,21.7721 C10.57,22.4941 10.288,23.4191 10.388,24.3751 C10.489,25.3531 10.994,26.2621 11.771,26.8661 L14,28.6001 L14,34.0381 C12.838,33.6241 12,32.5251 12,31.2231 C12,30.6701 11.552,30.2231 11,30.2231 C10.448,30.2231 10,30.6701 10,31.2231 C10,33.6371 11.721,35.6571 14,36.1211 L14,37.0001 C14,37.5531 14.448,38.0001 15,38.0001 C15.552,38.0001 16,37.5531 16,37.0001 L16,36.1181 C17.091,35.8961 18.085,35.3181 18.819,34.4501 C19.43,33.7261 19.712,32.8021 19.612,31.8451 C19.51,30.8671 19.006,29.9601 18.229,29.3561 L16,27.6221 L16,22.1841 C17.161,22.5981 18,23.6981 18,25.0001 L18,25.0001 Z" id="Fill-1544" fill="#FFFFFF"></path>
                <path d="M6,11 C5.74,11 5.48,10.89 5.29,10.71 C5.11,10.52 5,10.26 5,10 C5,9.74 5.11,9.479 5.29,9.29 C5.67,8.92 6.34,8.92 6.71,9.29 C6.89,9.479 7,9.74 7,10 C7,10.26 6.89,10.52 6.71,10.71 C6.52,10.89 6.26,11 6,11" id="Fill-1545" fill="#BC4933"></path>
                <path d="M8.8296,10 C8.8296,9.45 9.2796,9 9.8296,9 C10.3896,9 10.8296,9.45 10.8296,10 C10.8296,10.55 10.3896,11 9.8296,11 C9.2796,11 8.8296,10.55 8.8296,10 M12.6696,10 C12.6696,9.45 13.1096,9 13.6696,9 C14.2196,9 14.6696,9.45 14.6696,10 C14.6696,10.55 14.2196,11 13.6696,11 C13.1096,11 12.6696,10.55 12.6696,10 M16.4996,10 C16.4996,9.45 16.9496,9 17.4996,9 C18.0496,9 18.4996,9.45 18.4996,10 C18.4996,10.55 18.0496,11 17.4996,11 C16.9496,11 16.4996,10.55 16.4996,10 M20.3296,10 C20.3296,9.45 20.7796,9 21.3296,9 C21.8896,9 22.3296,9.45 22.3296,10 C22.3296,10.55 21.8896,11 21.3296,11 C20.7796,11 20.3296,10.55 20.3296,10 M24.1696,10 C24.1696,9.45 24.6096,9 25.1696,9 C25.7196,9 26.1696,9.45 26.1696,10 C26.1696,10.55 25.7196,11 25.1696,11 C24.6096,11 24.1696,10.55 24.1696,10 M27.9996,10 C27.9996,9.45 28.4496,9 28.9996,9 C29.5496,9 29.9996,9.45 29.9996,10 C29.9996,10.55 29.5496,11 28.9996,11 C28.4496,11 27.9996,10.55 27.9996,10 M31.8296,10 C31.8296,9.45 32.2796,9 32.8296,9 C33.3896,9 33.8296,9.45 33.8296,10 C33.8296,10.55 33.3896,11 32.8296,11 C32.2796,11 31.8296,10.55 31.8296,10 M35.6696,10 C35.6696,9.45 36.1096,9 36.6696,9 C37.2196,9 37.6696,9.45 37.6696,10 C37.6696,10.55 37.2196,11 36.6696,11 C36.1096,11 35.6696,10.55 35.6696,10 M39.4996,10 C39.4996,9.45 39.9496,9 40.4996,9 C41.0496,9 41.4996,9.45 41.4996,10 C41.4996,10.55 41.0496,11 40.4996,11 C39.9496,11 39.4996,10.55 39.4996,10 M43.3296,10 C43.3296,9.45 43.7796,9 44.3296,9 C44.8896,9 45.3296,9.45 45.3296,10 C45.3296,10.55 44.8896,11 44.3296,11 C43.7796,11 43.3296,10.55 43.3296,10 M47.1696,10 C47.1696,9.45 47.6096,9 48.1696,9 C48.7196,9 49.1696,9.45 49.1696,10 C49.1696,10.55 48.7196,11 48.1696,11 C47.6096,11 47.1696,10.55 47.1696,10" id="Fill-1546" fill="#BC4933"></path>
                <path d="M52,11 C51.73,11 51.48,10.89 51.29,10.7 C51.11,10.52 51,10.26 51,10 C51,9.74 51.11,9.479 51.29,9.29 C51.65,8.92 52.33,8.92 52.71,9.29 C52.89,9.479 53,9.74 53,10 C53,10.26 52.89,10.52 52.71,10.71 C52.52,10.89 52.26,11 52,11" id="Fill-1547" fill="#BC4933"></path>
                <path d="M55,0 L3,0 C1.35,0 0,1.35 0,3 C0,4.65 1.35,6 3,6 L3,3 L55,3 L55,6 C56.65,6 58,4.65 58,3 C58,1.35 56.65,0 55,0 L55,0 Z" id="Stroke-3921" stroke="#BC4933" stroke-width="2" stroke-linecap="round"></path>
                <polygon id="Stroke-3922" stroke="#BC4933" stroke-width="2" stroke-linecap="round" points="11 57 17 51 23 57 29 51 35 57 41 51 47 57 53 51 55 53 55 3 3 3 3 53 5 51"></polygon>
            </g>
        </g>
    </g>
</svg>